<svg id="Layer_1" data-name="Layer 1" xmlns="http://www.w3.org/2000/svg" xmlns:xlink="http://www.w3.org/1999/xlink" viewBox="0 0 816 737"><defs><style>.cls-1{stroke-miterlimit:10;stroke-width:10px;fill:url(#radial-gradient);stroke:url(#radial-gradient-2);}</style><radialGradient id="radial-gradient" cx="500" cy="500.5" r="383.76" gradientUnits="userSpaceOnUse"><stop offset="0" stop-color="#ed1e79"/><stop offset="1" stop-color="#f7931e"/></radialGradient><radialGradient id="radial-gradient-2" r="388.75" xlink:href="#radial-gradient"/></defs><title>logo</title><path class="cls-1" d="M633,461A125,125,0,1,1,508,336,125,125,0,0,1,633,461ZM301,577l113-63M341,344l84,60M298.5,268A50.5,50.5,0,1,0,349,318.5,50.5,50.5,0,0,0,298.5,268ZM414,514,277,593m563.5,35A29.5,29.5,0,1,0,870,657.5,29.5,29.5,0,0,0,840.5,628ZM786,515,599,477M265.5,542A50.5,50.5,0,1,0,316,592.5,50.5,50.5,0,0,0,265.5,542Zm520-78A50.5,50.5,0,1,0,836,514.5,50.5,50.5,0,0,0,785.5,464Zm88-30A29.5,29.5,0,1,0,903,463.5,29.5,29.5,0,0,0,873.5,434Zm-747-73A29.5,29.5,0,1,0,156,390.5,29.5,29.5,0,0,0,126.5,361Zm29-98A29.5,29.5,0,1,0,185,292.5,29.5,29.5,0,0,0,155.5,263ZM558,389l62-106m9-40a25,25,0,1,0,25,25A25,25,0,0,0,629,243Zm106.5-30A27.5,27.5,0,1,0,763,240.5,27.5,27.5,0,0,0,735.5,213ZM578,137a26,26,0,1,0,26,26A26,26,0,0,0,578,137ZM285.5,150A27.5,27.5,0,1,0,313,177.5,27.5,27.5,0,0,0,285.5,150Zm102,507A21.5,21.5,0,1,0,409,678.5,21.51,21.51,0,0,0,387.5,657ZM561.08,538.51,690,836m-1-28a28,28,0,1,0,28,28A28,28,0,0,0,689,808ZM383,678,273,600M126,390,265,592M152,290,132,398M285,177,155,292M578,163,285,177m13,141V182m89,496,230-11m72,169L840,657M786,515l58,142m29-200L850,657M735,240,873,457m-88,57,88-57M578,163l157,77M629,268,578,163m157,77L629,268M155,292l143,26M132,398l166-80" transform="translate(-92 -132)"/></svg>